<svg xmlns="http://www.w3.org/2000/svg" xmlns:xlink="http://www.w3.org/1999/xlink" width="500" zoomAndPan="magnify" viewBox="0 0 375 374.999991" height="500" preserveAspectRatio="xMidYMid meet" version="1.0"><defs><g/></defs><g fill="#fbfaf9" fill-opacity="1"><g transform="translate(186.499401, 233.624985)"><g><path d="M 9.1875 0 L 24.4375 0 L 24.4375 -47.039062 L 98.304688 -47.039062 C 129.726562 -47.039062 147.367188 -62.292969 147.550781 -88.199219 C 147.550781 -114.292969 129.910156 -129.542969 98.304688 -129.542969 L 9.1875 -129.542969 Z M 24.4375 -60.453125 L 24.4375 -115.945312 L 96.285156 -115.945312 C 119.4375 -115.945312 132.300781 -105.65625 132.300781 -88.199219 C 132.300781 -70.742188 119.4375 -60.453125 96.285156 -60.453125 Z M 24.4375 -60.453125 "/></g></g></g><g fill="#fbfaf9" fill-opacity="1"><g transform="translate(28.312202, 233.624985)"><g><path d="M 0.917969 0 L 17.273438 0 L 34.175781 -31.054688 L 123.113281 -31.054688 L 140.203125 0 L 156.371094 0 L 87.832031 -129.542969 L 69.824219 -129.542969 Z M 40.976562 -44.652344 L 78.644531 -116.128906 L 79.011719 -116.128906 L 116.496094 -44.652344 Z M 40.976562 -44.652344 "/></g></g></g></svg>