<svg xmlns="http://www.w3.org/2000/svg" xmlns:xlink="http://www.w3.org/1999/xlink" width="500" zoomAndPan="magnify" viewBox="0 0 375 374.999991" height="500" preserveAspectRatio="xMidYMid meet" version="1.0"><defs><g/><clipPath id="id1"><path d="M 36.75 37.5 L 330 37.5 L 330 330.75 L 36.75 330.75 Z M 36.75 37.5 " clip-rule="nonzero"/></clipPath><clipPath id="id2"><path d="M 183.375 37.5 C 102.394531 37.5 36.75 103.144531 36.75 184.125 C 36.75 265.105469 102.394531 330.75 183.375 330.75 C 264.355469 330.75 330 265.105469 330 184.125 C 330 103.144531 264.355469 37.5 183.375 37.5 " clip-rule="nonzero"/></clipPath><clipPath id="id3"><path d="M 82 145 L 375 145 L 375 375 L 82 375 Z M 82 145 " clip-rule="nonzero"/></clipPath><clipPath id="id4"><path d="M 82.476562 299.140625 L 332.101562 145.25 L 393.5 244.84375 L 143.875 398.738281 Z M 82.476562 299.140625 " clip-rule="nonzero"/></clipPath></defs><rect x="-37.5" width="450" fill="#ffffff" y="-37.499999" height="449.999989" fill-opacity="1"/><rect x="-37.5" width="450" fill="#ffffff" y="-37.499999" height="449.999989" fill-opacity="1"/><rect x="-37.5" width="450" fill="#000000" y="-37.499999" height="449.999989" fill-opacity="1"/><g clip-path="url(#id1)"><g clip-path="url(#id2)"><path stroke-linecap="butt" transform="matrix(0.75015, 0, 0, 0.75015, 36.750002, 37.499998)" fill="none" stroke-linejoin="miter" d="M 195.460968 0.00000328268 C 87.508565 0.00000328268 -0.00000278178 87.508571 -0.00000278178 195.460974 C -0.00000278178 303.413377 87.508565 390.921945 195.460968 390.921945 C 303.41337 390.921945 390.921939 303.413377 390.921939 195.460974 C 390.921939 87.508571 303.41337 0.00000328268 195.460968 0.00000328268 " stroke="#fbfaf9" stroke-width="4" stroke-opacity="1" stroke-miterlimit="4"/></g></g><g clip-path="url(#id3)"><g clip-path="url(#id4)"><path fill="#000000" d="M 82.476562 299.140625 L 332.101562 145.25 L 393.5 244.84375 L 143.875 398.734375 L 82.476562 299.140625 " fill-opacity="1" fill-rule="nonzero"/></g></g><g fill="#fbfaf9" fill-opacity="1"><g transform="translate(101.066467, 307.471888)"><g><path d="M 0.0664062 0.0390625 L 0.648438 0.398438 L 3.4375 -1.207031 L 10.316406 3.015625 L 10.160156 6.238281 L 10.742188 6.59375 L 11.410156 -5.765625 L 10.789062 -6.148438 Z M 4.03125 -1.550781 L 10.808594 -5.5 L 10.832031 -5.480469 L 10.355469 2.332031 Z M 4.03125 -1.550781 "/></g></g></g><g fill="#fbfaf9" fill-opacity="1"><g transform="translate(123.509127, 319.857199)"><g><path d="M 0.71875 0.296875 L 8.371094 3.4375 L 8.601562 2.878906 L 1.535156 -0.0234375 L 5.441406 -9.53125 L 4.851562 -9.773438 Z M 0.71875 0.296875 "/></g></g></g><g fill="#fbfaf9" fill-opacity="1"><g transform="translate(144.183542, 327.25387)"><g><path d="M 0.75 0.203125 L 1.363281 0.371094 L 4.214844 -10.132812 L 3.601562 -10.300781 Z M 0.75 0.203125 "/></g></g></g><g fill="#fbfaf9" fill-opacity="1"><g transform="translate(158.869756, 330.70114)"><g><path d="M 0.769531 0.0976562 L 1.402344 0.179688 L 2.710938 -9.964844 L 2.726562 -9.964844 L 10.992188 1.417969 L 11.855469 1.527344 L 13.246094 -9.265625 L 12.617188 -9.347656 L 11.304688 0.816406 L 11.289062 0.8125 L 3.039062 -10.582031 L 2.160156 -10.695312 Z M 0.769531 0.0976562 "/></g></g></g><g fill="#fbfaf9" fill-opacity="1"><g transform="translate(184.509131, 332.868814)"><g><path d="M 0.078125 -0.00390625 L 0.761719 -0.0351562 L 2.167969 -2.925781 L 10.234375 -3.289062 L 11.910156 -0.535156 L 12.59375 -0.566406 L 6.210938 -11.171875 L 5.480469 -11.140625 Z M 2.46875 -3.546875 L 5.863281 -10.613281 L 5.894531 -10.613281 L 9.878906 -3.878906 Z M 2.46875 -3.546875 "/></g></g></g><g fill="#fbfaf9" fill-opacity="1"><g transform="translate(209.991419, 330.502836)"><g/></g></g><g fill="#fbfaf9" fill-opacity="1"><g transform="translate(228.340945, 326.147805)"><g><path d="M 0.730469 -0.261719 L 1.332031 -0.476562 L -0.1875 -4.730469 L 6.464844 -7.105469 C 8.582031 -7.863281 9.40625 -9.523438 8.769531 -11.308594 C 8.136719 -13.078125 6.441406 -13.855469 4.324219 -13.101562 L -2.929688 -10.511719 Z M -0.394531 -5.300781 L -2.125 -10.152344 L 4.496094 -12.519531 C 6.28125 -13.15625 7.660156 -12.527344 8.171875 -11.09375 C 8.683594 -9.660156 8.015625 -8.300781 6.230469 -7.664062 Z M -0.394531 -5.300781 "/></g></g></g><g fill="#fbfaf9" fill-opacity="1"><g transform="translate(251.593619, 316.554999)"><g><path d="M 0.6875 -0.359375 L 1.253906 -0.652344 L -3.757812 -10.3125 L -4.320312 -10.019531 Z M 0.6875 -0.359375 "/></g></g></g><g fill="#fbfaf9" fill-opacity="1"><g transform="translate(264.727654, 309.144951)"><g><path d="M 5.804688 -3.621094 C 8.394531 -5.445312 9.335938 -7.667969 8.191406 -9.289062 C 7.28125 -10.550781 5.828125 -10.566406 3.332031 -9.359375 L 0.355469 -7.925781 C -1.484375 -7.007812 -2.527344 -6.976562 -3.132812 -7.839844 C -3.992188 -9.058594 -3.304688 -10.71875 -1.375 -12.082031 C 0.324219 -13.28125 2.289062 -13.5625 3.667969 -12.847656 L 3.925781 -13.425781 C 2.394531 -14.246094 0.175781 -13.917969 -1.738281 -12.566406 C -3.957031 -11 -4.726562 -8.996094 -3.636719 -7.445312 C -2.832031 -6.304688 -1.566406 -6.285156 0.613281 -7.347656 L 3.617188 -8.800781 C 5.769531 -9.84375 7.003906 -9.839844 7.691406 -8.863281 C 8.597656 -7.582031 7.726562 -5.714844 5.46875 -4.125 C 2.90625 -2.316406 0.171875 -2.097656 -1.453125 -3.570312 L -1.75 -3.019531 C 0.09375 -1.453125 3.039062 -1.667969 5.804688 -3.621094 Z M 5.804688 -3.621094 "/></g></g></g><g fill="#fbfaf9" fill-opacity="1"><g transform="translate(284.792344, 293.64426)"><g><path d="M 0.0546875 -0.0546875 L 0.539062 -0.539062 L -0.375 -3.621094 L 5.328125 -9.335938 L 8.425781 -8.4375 L 8.90625 -8.921875 L -2.960938 -12.4375 L -3.476562 -11.917969 Z M -0.574219 -4.28125 L -2.839844 -11.789062 L -2.816406 -11.808594 L 4.671875 -9.53125 Z M -0.574219 -4.28125 "/></g></g></g><g fill="#fbfaf9" fill-opacity="1"><g transform="translate(302.138378, 274.694708)"><g><path d="M 6.972656 -9.425781 C 7.335938 -9.949219 7.328125 -10.503906 7.128906 -11.003906 L 6.542969 -10.902344 C 6.746094 -10.457031 6.738281 -10.121094 6.523438 -9.816406 C 6.152344 -9.28125 5.582031 -9.335938 4.9375 -9.523438 L 3.414062 -9.945312 C 2.53125 -10.203125 1.722656 -10.292969 1.027344 -9.949219 L 1.015625 -9.957031 C 2.125 -11.738281 1.960938 -13.558594 0.5625 -14.535156 C -0.890625 -15.550781 -2.804688 -14.976562 -4.078125 -13.15625 L -8.472656 -6.875 L 0.445312 -0.636719 L 0.808594 -1.15625 L -3.082031 -3.878906 L 0.304688 -8.726562 C 0.992188 -9.707031 1.964844 -9.691406 3.046875 -9.367188 L 4.648438 -8.949219 C 5.613281 -8.675781 6.429688 -8.652344 6.972656 -9.425781 Z M -3.589844 -4.214844 L -7.621094 -7.035156 L -3.601562 -12.785156 C -2.539062 -14.300781 -0.953125 -14.78125 0.230469 -13.953125 C 1.386719 -13.144531 1.492188 -11.480469 0.433594 -9.964844 Z M -3.589844 -4.214844 "/></g></g></g><g fill="#fbfaf9" fill-opacity="1"><g transform="translate(316.115857, 252.661437)"><g><path d="M 0.332031 -0.703125 L 4.839844 -10.300781 L 4.292969 -10.558594 L 0.0546875 -1.535156 L -4.246094 -3.558594 L -0.335938 -11.875 L -0.886719 -12.132812 L -4.792969 -3.8125 L -8.699219 -5.648438 L -4.527344 -14.53125 L -5.074219 -14.789062 L -9.519531 -5.332031 Z M 0.332031 -0.703125 "/></g></g></g><g fill="#fbfaf9" fill-opacity="1"><g transform="translate(325.645685, 229.894215)"><g><path d="M 0.207031 -0.75 L 0.375 -1.363281 L -9.484375 -4.085938 L -9.480469 -4.101562 L 2.953125 -10.683594 L 3.183594 -11.523438 L -7.304688 -14.421875 L -7.476562 -13.808594 L 2.402344 -11.078125 L 2.398438 -11.0625 L -10.046875 -4.5 L -10.28125 -3.648438 Z M 0.207031 -0.75 "/></g></g></g><g fill="#fbfaf9" fill-opacity="1"><g transform="translate(331.363306, 204.837131)"><g><path d="M 0.0820312 -0.773438 L 0.144531 -1.40625 L -4.933594 -1.933594 L -5.992188 -4.054688 L 1.007812 -9.714844 L 1.101562 -10.59375 L -6.265625 -4.613281 L -9.734375 -11.609375 L -9.851562 -10.480469 L -5.644531 -2.023438 L -5.644531 -2.007812 L -10.679688 -2.527344 L -10.746094 -1.894531 Z M 0.0820312 -0.773438 "/></g></g></g><g fill="#fbfaf9" fill-opacity="1"><g transform="translate(332.887325, 181.206079)"><g><path d="M -0.195312 -7.957031 C -0.519531 -12.351562 -3.058594 -15.09375 -6.542969 -14.835938 C -10.042969 -14.578125 -12.148438 -11.496094 -11.824219 -7.097656 C -11.5 -2.703125 -8.964844 0.0390625 -5.464844 -0.21875 C -1.980469 -0.476562 0.125 -3.558594 -0.195312 -7.957031 Z M -0.800781 -7.910156 C -0.503906 -3.902344 -2.398438 -1.085938 -5.511719 -0.855469 C -8.640625 -0.625 -10.925781 -3.132812 -11.222656 -7.144531 C -11.515625 -11.152344 -9.621094 -13.96875 -6.496094 -14.199219 C -3.382812 -14.429688 -1.097656 -11.921875 -0.800781 -7.910156 Z M -0.800781 -7.910156 "/></g></g></g><g fill="#fbfaf9" fill-opacity="1"><g transform="translate(187.499992, 234.463482)"><g><path d="M 6.839844 0 L 18.1875 0 L 18.1875 -35.011719 L 73.167969 -35.011719 C 96.554688 -35.011719 109.683594 -46.363281 109.820312 -65.644531 C 109.820312 -85.066406 96.691406 -96.417969 73.167969 -96.417969 L 6.839844 -96.417969 Z M 18.1875 -44.996094 L 18.1875 -86.296875 L 71.664062 -86.296875 C 88.894531 -86.296875 98.46875 -78.636719 98.46875 -65.644531 C 98.46875 -52.652344 88.894531 -44.996094 71.664062 -44.996094 Z M 18.1875 -44.996094 "/></g></g></g><g fill="#fbfaf9" fill-opacity="1"><g transform="translate(70.440154, 234.463482)"><g><path d="M 0.683594 0 L 12.855469 0 L 25.4375 -23.113281 L 91.632812 -23.113281 L 104.351562 0 L 116.386719 0 L 65.371094 -96.417969 L 51.96875 -96.417969 Z M 30.496094 -33.234375 L 58.535156 -86.433594 L 58.808594 -86.433594 L 86.707031 -33.234375 Z M 30.496094 -33.234375 "/></g></g></g></svg>